<svg xmlns="http://www.w3.org/2000/svg" viewBox="0 0 123.01 34.48"><defs><style>.cls-1{fill:#f2f2f2;}</style></defs><title>Recurso 6</title><g id="Capa_2" data-name="Capa 2"><g id="Capa_1-2" data-name="Capa 1"><path class="cls-1" d="M45,18.72a18.43,18.43,0,0,1,1.7,1.53c.59.6,1.18,1.26,1.76,2s1.13,1.42,1.64,2.14a22.62,22.62,0,0,1,1.31,2H48.51a20.23,20.23,0,0,0-1.3-1.91c-.49-.65-1-1.27-1.53-1.87a23.17,23.17,0,0,0-1.63-1.65,16.8,16.8,0,0,0-1.58-1.25v6.68H40V6.06l2.48-.43V18.3l1.42-1.42c.51-.51,1-1,1.52-1.58l1.42-1.53c.44-.49.83-.92,1.15-1.3h2.91l-1.34,1.47c-.48.54-1,1.08-1.49,1.62s-1,1.09-1.57,1.63Z"/><path class="cls-1" d="M58.09,26.69a7.69,7.69,0,0,1-3-.53A6,6,0,0,1,53,24.66a6.14,6.14,0,0,1-1.29-2.29,9.28,9.28,0,0,1-.43-2.92,8.89,8.89,0,0,1,.46-2.94,6.92,6.92,0,0,1,1.33-2.31,5.88,5.88,0,0,1,2.1-1.53,6.8,6.8,0,0,1,2.76-.54,10.65,10.65,0,0,1,1.87.16,8.33,8.33,0,0,1,1.79.5L61,14.91a5.36,5.36,0,0,0-1.3-.43,7,7,0,0,0-1.56-.16A3.92,3.92,0,0,0,55,15.63a5.75,5.75,0,0,0-1.11,3.82,7.73,7.73,0,0,0,.25,2.05,4.22,4.22,0,0,0,.81,1.61,3.58,3.58,0,0,0,1.4,1,5.35,5.35,0,0,0,2.08.36,7.56,7.56,0,0,0,1.79-.19,7,7,0,0,0,1.26-.4L61.81,26a2.68,2.68,0,0,1-.62.26,8.24,8.24,0,0,1-.91.21c-.34.07-.7.12-1.08.16A8.48,8.48,0,0,1,58.09,26.69Z"/><path class="cls-1" d="M75,26c-.57.14-1.32.29-2.26.45a19.52,19.52,0,0,1-3.25.24,6.92,6.92,0,0,1-2.7-.46A4.47,4.47,0,0,1,65,24.87a5.49,5.49,0,0,1-1-2,10.24,10.24,0,0,1-.3-2.57V12.47h2.49v7.27a6.39,6.39,0,0,0,.8,3.64,3.14,3.14,0,0,0,2.7,1.09l.83,0,.8-.07L72,24.3a1.81,1.81,0,0,0,.44-.1V12.47H75Z"/><path class="cls-1" d="M77.4,12.87c.57-.14,1.33-.29,2.26-.45a19.52,19.52,0,0,1,3.25-.24,6.08,6.08,0,0,1,2.24.36,4,4,0,0,1,1.53,1.05l.59-.37a7,7,0,0,1,1-.47,12,12,0,0,1,1.31-.4,7,7,0,0,1,1.55-.17,6.14,6.14,0,0,1,2.62.47A3.71,3.71,0,0,1,95.32,14a5.31,5.31,0,0,1,.78,2,15.68,15.68,0,0,1,.2,2.57v7.8H93.81V19.1A15.94,15.94,0,0,0,93.69,17a4.11,4.11,0,0,0-.45-1.47,2.17,2.17,0,0,0-.91-.87,3.34,3.34,0,0,0-1.48-.28,5.54,5.54,0,0,0-2.07.33,4.32,4.32,0,0,0-1.11.6A10.85,10.85,0,0,1,88,16.83a13.81,13.81,0,0,1,.1,1.74v7.8H85.61V19.1A12.9,12.9,0,0,0,85.47,17,4.11,4.11,0,0,0,85,15.52a2.17,2.17,0,0,0-.91-.87,3.28,3.28,0,0,0-1.46-.28l-.8,0c-.29,0-.56,0-.82.06l-.7.1a3.39,3.39,0,0,0-.43.08V26.37H77.4Z"/><path class="cls-1" d="M97.86,19.45a9,9,0,0,1,.53-3.22,6.8,6.8,0,0,1,1.42-2.29,5.67,5.67,0,0,1,2-1.36,6.37,6.37,0,0,1,2.35-.45,5.32,5.32,0,0,1,4.3,1.75q1.5,1.74,1.5,5.33v.41a3.48,3.48,0,0,1,0,.47h-9.51a5.12,5.12,0,0,0,1.25,3.29,4.63,4.63,0,0,0,3.42,1.12,9.2,9.2,0,0,0,2.21-.23,7.88,7.88,0,0,0,1.35-.44l.35,2.08a7.79,7.79,0,0,1-1.59.51,11.23,11.23,0,0,1-2.58.27,8.09,8.09,0,0,1-3.14-.55,5.84,5.84,0,0,1-2.18-1.51,6.06,6.06,0,0,1-1.27-2.28A9.54,9.54,0,0,1,97.86,19.45Zm9.54-1.36a4.21,4.21,0,0,0-.85-2.77,2.89,2.89,0,0,0-2.39-1.08,3.32,3.32,0,0,0-1.51.33,3.52,3.52,0,0,0-1.11.87,3.82,3.82,0,0,0-.7,1.23,6.26,6.26,0,0,0-.34,1.42Z"/><path class="cls-1" d="M111.79,12.87c.57-.14,1.32-.29,2.27-.45a19.65,19.65,0,0,1,3.26-.24,6.89,6.89,0,0,1,2.75.47A4.33,4.33,0,0,1,121.82,14a5,5,0,0,1,.92,2,11.66,11.66,0,0,1,.27,2.6v7.8h-2.48V19.1a11.37,11.37,0,0,0-.18-2.19,3.53,3.53,0,0,0-.57-1.47,2.21,2.21,0,0,0-1.07-.81,4.49,4.49,0,0,0-1.66-.26l-.83,0c-.28,0-.55,0-.81.06l-.7.1-.44.08V26.37h-2.48Z"/><path class="cls-1" d="M.81,21.54l.06,0,14.89-9.91V0L1.59,9.49A4.64,4.64,0,0,0,.41,10.55,3.63,3.63,0,0,0,0,12V22.43a1.27,1.27,0,0,1,.13-.19A3.16,3.16,0,0,1,.81,21.54Z"/><path class="cls-1" d="M8.66,18.17,1.74,22.78a1.29,1.29,0,0,0-.64,1.14,1.45,1.45,0,0,0,.6,1.18l14.06,9.38V22.91Z"/><path class="cls-1" d="M32.18,10.59a1.41,1.41,0,0,0-.61-1.18L17.52,0V11.6l7.09,4.74,6.92-4.62A1.28,1.28,0,0,0,32.18,10.59Z"/><path class="cls-1" d="M32.86,23.93a3.45,3.45,0,0,0,.41-1.42V12.06l-.12.18a3.12,3.12,0,0,1-.69.7l-.05,0L17.52,22.89V34.48L31.69,25A4.5,4.5,0,0,0,32.86,23.93Z"/></g></g></svg>