<?xml version="1.0"?>
<svg xmlns="http://www.w3.org/2000/svg" id="Capa_1" enable-background="new 0 0 512 512" height="512px" viewBox="0 0 512 512" width="512px"><g><g><path d="m31 150h46.656c1.273 5.767 3.277 11.455 5.978 17.018l-29.304 14.546c-7.42 3.683-10.45 12.685-6.766 20.105 3.684 7.422 12.685 10.449 20.105 6.766l33.458-16.608c6.435 6.788 14.043 13.222 22.758 19.189 7.592 5.198 15.682 9.793 24.019 13.708-1.383 4.404-2.801 8.899-4.26 13.522-23.893 75.742-50.752 160.888-44.835 219.592-13.769 7.813-22.809 22.602-22.809 39.162 0 8.284 6.716 15 15 15h330c41.355 0 75-33.645 75-75 0-41.458-33.534-76-75-76h-15c-16.542 0-30-13.458-30-30s13.458-30 30-30h15c8.284 0 15-6.716 15-15s-6.716-15-15-15h-15c-33.084 0-60 26.916-60 60s26.916 60 60 60h15c24.393 0 45 21.065 45 46 0 24.813-20.187 45-45 45h-77.575c-3.618-10.223-10.836-18.844-20.275-24.186 5.791-58.529-21.047-143.915-44.921-219.874-1.402-4.46-2.787-8.867-4.147-13.21 17.015-7.989 33.913-19.275 46.927-33.051l33.757 16.757c7.421 3.684 16.422.652 20.104-6.766 3.684-7.42.654-16.422-6.767-20.105l-29.655-14.721c2.658-5.508 4.634-11.136 5.893-16.844h47.093c8.284 0 15-6.716 15-15s-6.716-15-15-15h-47.162c-2.31-10.049-6.939-19.93-13.876-29.56 10.035-13.013 15.604-28.968 15.604-45.44v-30c0-8.284-6.716-15-15-15h-30c-25.285 0-48.57 12.773-62.329 33.399-9.903-2.258-19.174-3.399-27.671-3.399s-17.768 1.141-27.671 3.399c-13.759-20.626-37.044-33.399-62.329-33.399h-30c-8.284 0-15 6.716-15 15v30c0 16.472 5.569 32.427 15.602 45.44-6.937 9.63-11.566 19.511-13.876 29.56h-46.726c-8.284 0-15 6.716-15 15s6.716 15 15 15zm195 332h-30v-106c0-8.271 6.729-15 15-15s15 6.729 15 15zm65.875-17.422c-.785 3.93.034 8.01 2.275 11.332 2.024 2.999 5.056 5.154 8.523 6.09h-46.673v-106c0-24.813-20.187-45-45-45s-45 20.187-45 45v106h-46.68c3.466-.94 6.495-3.098 8.515-6.099 2.239-3.325 3.054-7.409 2.263-11.339-10.281-51.055 18.795-143.229 42.157-217.291 1.312-4.159 2.587-8.204 3.84-12.188 11.907 3.201 23.763 4.917 34.905 4.917 11.137 0 22.989-1.715 34.89-4.913 1.223 3.905 2.463 7.851 3.72 11.848 23.358 74.32 52.429 166.812 42.265 217.643zm-165.43-375.551c-.211-4.024-2.032-7.794-5.052-10.46-9.926-8.764-15.393-20.684-15.393-33.567v-15h15c17.791 0 33.941 10.571 41.145 26.932 3.053 6.933 10.796 10.501 18.048 8.319 11.585-3.484 21.95-5.251 30.807-5.251s19.222 1.767 30.807 5.251c7.252 2.182 14.997-1.387 18.048-8.319 7.204-16.361 23.354-26.932 41.145-26.932h15v15c0 12.883-5.467 24.803-15.393 33.566-3.021 2.667-4.842 6.437-5.053 10.46-.211 4.024 1.206 7.963 3.932 10.931 10.958 11.932 16.514 23.722 16.514 35.043 0 38.199-60.504 75-105 75-41.511 0-106-34.287-106-75 0-13.896 8.067-24.756 17.514-35.042 2.725-2.968 4.142-6.907 3.931-10.931z" data-original="#000000" class="active-path" data-old_color="#000000" fill="#FFFFFF"/></g></g> </svg>
